<svg xmlns="http://www.w3.org/2000/svg" viewBox="0 0 100 150">
  <!-- Cactus Obstacle -->
  <g>
    <!-- Main Stem -->
    <rect x="40" y="30" width="20" height="120" rx="5" fill="#2E8B57"/>
    
    <!-- Left Branch -->
    <path d="M40,70 H20 Q15,70 15,65 V40 Q15,35 20,35 H25 Q30,35 30,40 V60 H40" fill="#2E8B57"/>
    <rect x="15" y="35" width="15" height="5" rx="2" fill="#2E8B57"/>
    
    <!-- Right Branch -->
    <path d="M60,50 H80 Q85,50 85,55 V80 Q85,85 80,85 H75 Q70,85 70,80 V60 H60" fill="#2E8B57"/>
    <rect x="70" y="80" width="15" height="5" rx="2" fill="#2E8B57"/>
    
    <!-- Cactus Details -->
    <line x1="45" y1="50" x2="55" y2="50" stroke="#1D6E42" stroke-width="1"/>
    <line x1="45" y1="70" x2="55" y2="70" stroke="#1D6E42" stroke-width="1"/>
    <line x1="45" y1="90" x2="55" y2="90" stroke="#1D6E42" stroke-width="1"/>
    <line x1="45" y1="110" x2="55" y2="110" stroke="#1D6E42" stroke-width="1"/>
    
    <line x1="25" y1="45" x2="25" y2="55" stroke="#1D6E42" stroke-width="1"/>
    <line x1="75" y1="65" x2="75" y2="75" stroke="#1D6E42" stroke-width="1"/>
  </g>
</svg>
