<svg xmlns="http://www.w3.org/2000/svg" viewBox="0 0 800 100">
  <!-- Night Clouds Background -->
  <defs>
    <linearGradient id="nightCloudGradient" x1="0%" y1="0%" x2="0%" y2="100%">
      <stop offset="0%" stop-color="#475B79" />
      <stop offset="100%" stop-color="#364863" />
    </linearGradient>
  </defs>
  
  <!-- Night Clouds -->
  <g fill="url(#nightCloudGradient)">
    <!-- Cloud 1 -->
    <path d="M50,60 C50,51.7 56.7,45 65,45 C67.6,45 70.1,45.7 72.2,47 C75.7,38.4 84.2,32.5 94,32.5 C106.1,32.5 116,42.4 116,54.5 C116,55.5 115.9,56.5 115.7,57.5 C121.1,58.3 125,62.9 125,68.5 C125,74.9 119.9,80 113.5,80 L65,80 C56.7,80 50,73.3 50,65 L50,60 Z"/>
    
    <!-- Cloud 2 -->
    <path d="M220,40 C220,31.7 226.7,25 235,25 C237.6,25 240.1,25.7 242.2,27 C245.7,18.4 254.2,12.5 264,12.5 C276.1,12.5 286,22.4 286,34.5 C286,35.5 285.9,36.5 285.7,37.5 C291.1,38.3 295,42.9 295,48.5 C295,54.9 289.9,60 283.5,60 L235,60 C226.7,60 220,53.3 220,45 L220,40 Z" transform="scale(0.9)"/>
    
    <!-- Cloud 3 -->
    <path d="M400,70 C400,61.7 406.7,55 415,55 C417.6,55 420.1,55.7 422.2,57 C425.7,48.4 434.2,42.5 444,42.5 C456.1,42.5 466,52.4 466,64.5 C466,65.5 465.9,66.5 465.7,67.5 C471.1,68.3 475,72.9 475,78.5 C475,84.9 469.9,90 463.5,90 L415,90 C406.7,90 400,83.3 400,75 L400,70 Z" transform="scale(0.85)"/>
    
    <!-- Cloud 4 -->
    <path d="M580,50 C580,41.7 586.7,35 595,35 C597.6,35 600.1,35.7 602.2,37 C605.7,28.4 614.2,22.5 624,22.5 C636.1,22.5 646,32.4 646,44.5 C646,45.5 645.9,46.5 645.7,47.5 C651.1,48.3 655,52.9 655,58.5 C655,64.9 649.9,70 643.5,70 L595,70 C586.7,70 580,63.3 580,55 L580,50 Z"/>
    
    <!-- Cloud 5 -->
    <path d="M700,30 C700,21.7 706.7,15 715,15 C717.6,15 720.1,15.7 722.2,17 C725.7,8.4 734.2,2.5 744,2.5 C756.1,2.5 766,12.4 766,24.5 C766,25.5 765.9,26.5 765.7,27.5 C771.1,28.3 775,32.9 775,38.5 C775,44.9 769.9,50 763.5,50 L715,50 C706.7,50 700,43.3 700,35 L700,30 Z" transform="scale(0.95)"/>
  </g>
  
  <!-- Cloud highlights - subtle moonlight effect -->
  <g fill="#FFFFFF" opacity="0.1">
    <path d="M55,50 C55,45 59,41 65,41 M230,30 C230,25 234,21 240,21 M405,60 C405,55 409,51 415,51 M585,40 C585,35 589,31 595,31 M705,20 C705,15 709,11 715,11" 
          stroke="#FFFFFF" stroke-width="1" fill="none" />
  </g>
</svg>
