<svg xmlns="http://www.w3.org/2000/svg" viewBox="0 0 800 100">
  <!-- Ground Surface -->
  <rect width="800" height="100" fill="#CD853F"/>
  
  <!-- Ground Texture -->
  <g fill="#A0522D" opacity="0.5">
    <circle cx="50" cy="20" r="5"/>
    <circle cx="120" cy="40" r="4"/>
    <circle cx="200" cy="30" r="6"/>
    <circle cx="280" cy="50" r="3"/>
    <circle cx="350" cy="25" r="4"/>
    <circle cx="410" cy="60" r="5"/>
    <circle cx="480" cy="35" r="3"/>
    <circle cx="550" cy="45" r="6"/>
    <circle cx="620" cy="20" r="4"/>
    <circle cx="680" cy="55" r="5"/>
    <circle cx="750" cy="30" r="3"/>
  </g>
  
  <!-- Top Surface Texture -->
  <path d="M0,0 L800,0 L800,10 
           Q790,8 780,12 Q770,15 760,8 Q750,5 740,10 
           Q730,12 720,7 Q710,5 700,11 Q690,13 680,6 
           Q670,4 660,10 Q650,14 640,7 Q630,3 620,12 
           Q610,15 600,9 Q590,6 580,12 Q570,15 560,8 
           Q550,4 540,10 Q530,15 520,7 Q510,3 500,11 
           Q490,14 480,6 Q470,3 460,12 Q450,15 440,7 
           Q430,4 420,10 Q410,14 400,8 Q390,5 380,12 
           Q370,15 360,9 Q350,5 340,11 Q330,14 320,6 
           Q310,4 300,10 Q290,15 280,7 Q270,5 260,12 
           Q250,14 240,7 Q230,3 220,11 Q210,15 200,6 
           Q190,3 180,12 Q170,15 160,9 Q150,6 140,11 
           Q130,14 120,8 Q110,5 100,12 Q90,15 80,7 
           Q70,5 60,10 Q50,15 40,6 Q30,3 20,12 
           Q10,15 0,8 Z" fill="#8B4513"/>
</svg>
