<svg xmlns="http://www.w3.org/2000/svg" viewBox="0 0 800 150">
  <!-- Mountains Background -->
  <defs>
    <linearGradient id="mountainGradient1" x1="0%" y1="0%" x2="0%" y2="100%">
      <stop offset="0%" stop-color="#8B6B61" />
      <stop offset="100%" stop-color="#6A4E44" />
    </linearGradient>
    <linearGradient id="mountainGradient2" x1="0%" y1="0%" x2="0%" y2="100%">
      <stop offset="0%" stop-color="#7C5C52" />
      <stop offset="100%" stop-color="#5B3F35" />
    </linearGradient>
    <linearGradient id="snowCap" x1="0%" y1="0%" x2="0%" y2="100%">
      <stop offset="0%" stop-color="#FFFFFF" />
      <stop offset="100%" stop-color="#E0E0E0" />
    </linearGradient>
  </defs>
  
  <!-- Far mountains layer -->
  <path d="M0,150 L100,40 L150,80 L200,30 L300,90 L350,50 L420,100 L480,30 L550,70 L600,20 L650,60 L700,40 L800,90 L800,150 Z" 
        fill="url(#mountainGradient1)" />
  
  <!-- Snow caps on far mountains -->
  <path d="M200,30 L210,35 L190,40 M480,30 L490,35 L470,40 M600,20 L610,25 L590,30" 
        fill="url(#snowCap)" />
  
  <!-- Closer mountains layer -->
  <path d="M-50,150 L50,70 L100,100 L180,50 L250,120 L320,60 L400,130 L450,80 L520,110 L580,50 L650,100 L720,60 L850,110 L850,150 Z" 
        fill="url(#mountainGradient2)" />
</svg>
