<svg xmlns="http://www.w3.org/2000/svg" viewBox="0 0 800 600">
  <!-- Sky Background with Gradient -->
  <defs>
    <linearGradient id="skyGradient" x1="0%" y1="0%" x2="0%" y2="100%">
      <stop offset="0%" stop-color="#87CEEB" />
      <stop offset="100%" stop-color="#E0F7FA" />
    </linearGradient>
  </defs>
  
  <!-- Background Rectangle -->
  <rect width="800" height="600" fill="url(#skyGradient)" />
  
  <!-- Clouds -->
  <g fill="white" opacity="0.8">
    <!-- Cloud 1 -->
    <ellipse cx="150" cy="100" rx="60" ry="30" />
    <ellipse cx="120" cy="90" rx="40" ry="25" />
    <ellipse cx="180" cy="90" rx="40" ry="25" />
    
    <!-- Cloud 2 -->
    <ellipse cx="550" cy="70" rx="70" ry="35" />
    <ellipse cx="520" cy="60" rx="45" ry="30" />
    <ellipse cx="580" cy="60" rx="45" ry="30" />
    
    <!-- Cloud 3 -->
    <ellipse cx="350" cy="150" rx="50" ry="25" />
    <ellipse cx="320" cy="140" rx="35" ry="20" />
    <ellipse cx="380" cy="140" rx="35" ry="20" />
    
    <!-- Cloud 4 -->
    <ellipse cx="700" cy="180" rx="55" ry="28" />
    <ellipse cx="670" cy="170" rx="38" ry="22" />
    <ellipse cx="730" cy="170" rx="38" ry="22" />
  </g>
  
  <!-- Sun -->
  <circle cx="680" cy="80" r="40" fill="#FFD700" />
  <circle cx="680" cy="80" r="30" fill="#FFA500" />
</svg>
