<svg xmlns="http://www.w3.org/2000/svg" viewBox="0 0 800 300">
  <!-- Stars Pattern -->
  <g fill="white">
    <!-- Small stars -->
    <circle cx="50" cy="30" r="1" />
    <circle cx="120" cy="45" r="1" />
    <circle cx="200" cy="20" r="1" />
    <circle cx="280" cy="50" r="1" />
    <circle cx="350" cy="35" r="1" />
    <circle cx="420" cy="15" r="1" />
    <circle cx="480" cy="60" r="1" />
    <circle cx="550" cy="25" r="1" />
    <circle cx="620" cy="40" r="1" />
    <circle cx="690" cy="10" r="1" />
    <circle cx="760" cy="55" r="1" />
    
    <circle cx="30" cy="80" r="1" />
    <circle cx="100" cy="95" r="1" />
    <circle cx="180" cy="70" r="1" />
    <circle cx="260" cy="110" r="1" />
    <circle cx="340" cy="85" r="1" />
    <circle cx="410" cy="75" r="1" />
    <circle cx="490" cy="120" r="1" />
    <circle cx="570" cy="65" r="1" />
    <circle cx="640" cy="100" r="1" />
    <circle cx="710" cy="80" r="1" />
    <circle cx="780" cy="115" r="1" />
    
    <circle cx="60" cy="150" r="1" />
    <circle cx="140" cy="135" r="1" />
    <circle cx="220" cy="160" r="1" />
    <circle cx="300" cy="130" r="1" />
    <circle cx="380" cy="165" r="1" />
    <circle cx="450" cy="140" r="1" />
    <circle cx="530" cy="170" r="1" />
    <circle cx="610" cy="145" r="1" />
    <circle cx="680" cy="175" r="1" />
    <circle cx="750" cy="150" r="1" />
    
    <circle cx="25" cy="200" r="1" />
    <circle cx="95" cy="225" r="1" />
    <circle cx="175" cy="190" r="1" />
    <circle cx="255" cy="230" r="1" />
    <circle cx="335" cy="195" r="1" />
    <circle cx="415" cy="235" r="1" />
    <circle cx="485" cy="200" r="1" />
    <circle cx="565" cy="240" r="1" />
    <circle cx="635" cy="205" r="1" />
    <circle cx="715" cy="245" r="1" />
    <circle cx="785" cy="210" r="1" />
    
    <!-- Medium stars -->
    <circle cx="75" cy="40" r="1.5" />
    <circle cx="150" cy="65" r="1.5" />
    <circle cx="230" cy="30" r="1.5" />
    <circle cx="315" cy="50" r="1.5" />
    <circle cx="385" cy="20" r="1.5" />
    <circle cx="460" cy="70" r="1.5" />
    <circle cx="540" cy="35" r="1.5" />
    <circle cx="630" cy="55" r="1.5" />
    <circle cx="700" cy="25" r="1.5" />
    <circle cx="775" cy="60" r="1.5" />
    
    <circle cx="40" cy="110" r="1.5" />
    <circle cx="125" cy="95" r="1.5" />
    <circle cx="195" cy="125" r="1.5" />
    <circle cx="275" cy="90" r="1.5" />
    <circle cx="360" cy="120" r="1.5" />
    <circle cx="430" cy="85" r="1.5" />
    <circle cx="515" cy="115" r="1.5" />
    <circle cx="585" cy="80" r="1.5" />
    <circle cx="665" cy="110" r="1.5" />
    <circle cx="735" cy="90" r="1.5" />
    
    <circle cx="50" cy="180" r="1.5" />
    <circle cx="130" cy="155" r="1.5" />
    <circle cx="210" cy="185" r="1.5" />
    <circle cx="290" cy="150" r="1.5" />
    <circle cx="370" cy="190" r="1.5" />
    <circle cx="445" cy="160" r="1.5" />
    <circle cx="525" cy="195" r="1.5" />
    <circle cx="605" cy="165" r="1.5" />
    <circle cx="685" cy="185" r="1.5" />
    <circle cx="765" cy="155" r="1.5" />
    
    <!-- Large stars (with glow effect) -->
    <g opacity="0.8">
      <circle cx="90" cy="50" r="2" />
      <circle cx="90" cy="50" r="3" opacity="0.3" />
      <circle cx="90" cy="50" r="4" opacity="0.1" />
      
      <circle cx="245" cy="85" r="2" />
      <circle cx="245" cy="85" r="3" opacity="0.3" />
      <circle cx="245" cy="85" r="4" opacity="0.1" />
      
      <circle cx="400" cy="45" r="2" />
      <circle cx="400" cy="45" r="3" opacity="0.3" />
      <circle cx="400" cy="45" r="4" opacity="0.1" />
      
      <circle cx="560" cy="100" r="2" />
      <circle cx="560" cy="100" r="3" opacity="0.3" />
      <circle cx="560" cy="100" r="4" opacity="0.1" />
      
      <circle cx="730" cy="60" r="2" />
      <circle cx="730" cy="60" r="3" opacity="0.3" />
      <circle cx="730" cy="60" r="4" opacity="0.1" />
      
      <circle cx="170" cy="150" r="2" />
      <circle cx="170" cy="150" r="3" opacity="0.3" />
      <circle cx="170" cy="150" r="4" opacity="0.1" />
      
      <circle cx="330" cy="180" r="2" />
      <circle cx="330" cy="180" r="3" opacity="0.3" />
      <circle cx="330" cy="180" r="4" opacity="0.1" />
      
      <circle cx="490" cy="130" r="2" />
      <circle cx="490" cy="130" r="3" opacity="0.3" />
      <circle cx="490" cy="130" r="4" opacity="0.1" />
      
      <circle cx="650" cy="170" r="2" />
      <circle cx="650" cy="170" r="3" opacity="0.3" />
      <circle cx="650" cy="170" r="4" opacity="0.1" />
    </g>
  </g>
</svg>
